<?xml version="1.0" encoding="utf-8"?>

<!DOCTYPE svg PUBLIC "-//W3C//DTD SVG 1.1//EN" "http://www.w3.org/Graphics/SVG/1.1/DTD/svg11.dtd">
<!-- Uploaded to: SVG Repo, www.svgrepo.com, Generator: SVG Repo Mixer Tools -->
<svg height="800px" width="800px" version="1.1" id="_x32_" xmlns="http://www.w3.org/2000/svg" xmlns:xlink="http://www.w3.org/1999/xlink" 
	 viewBox="0 0 512 512"  xml:space="preserve">
<style type="text/css">
	.st0{fill:#000000;}
</style>
<g>
	<path class="st0" d="M486.28,196.046C482.19,87.09,392.628,0,282.673,0C170.118,0,78.875,91.234,78.856,203.781
		C63.67,233.026,27.245,307.275,27.245,307.275c-2.799,5.589-2.899,12.15-0.281,17.83c2.617,5.689,7.67,9.869,13.731,11.387
		l33.308,8.334c0,0,16.968,76.612,20.839,94.388c5.853,26.919,14.56,32.754,40.024,32.754c25.483,0,55.6-8.253,55.6-8.253V512
		h218.366v-76.421c0-27.673,7.616-62.38,29.118-88.336C481.191,295.06,489.597,239.233,486.28,196.046z"/>
</g>
</svg>