<svg xmlns="http://www.w3.org/2000/svg" width="350" height="165" fill="none" viewBox="0 0 350 165"><style>.header{font:600 18px &apos;Segoe UI&apos;,Ubuntu,Sans-Serif;fill:#e07a5f;animation:fadeInAnimation .8s ease-in-out forwards}.lang-name{font:400 11px &apos;Segoe UI&apos;,Ubuntu,Sans-Serif;fill:#ebcfb2}*{animation-duration:0s!important;animation-delay:0s!important}</style><rect width="349" height="99%" x=".5" y=".5" fill="#373f51" stroke="#e4e2e2" stroke-opacity="1" data-testid="card-bg" rx="4.5"/><g data-testid="card-title"><g><text x="0" y="0" class="header" data-testid="header" transform="translate(25, 35) translate(0, 0)">Most Used Languages</text></g></g><g data-testid="main-card-body" transform="translate(0, 55)"><svg x="25" data-testid="lang-items"><mask id="rect-mask"><rect width="300" height="8" x="0" y="0" fill="#fff" rx="5"/></mask><rect width="261.36" height="8" x="0" y="0" fill="#555" data-testid="lang-progress" mask="url(#rect-mask)"/><rect width="17.05" height="8" x="261.36" y="0" fill="#B83998" data-testid="lang-progress" mask="url(#rect-mask)"/><rect width="11.94" height="8" x="278.41" y="0" fill="#f34b7d" data-testid="lang-progress" mask="url(#rect-mask)"/><rect width="15.78" height="8" x="290.35" y="0" fill="#858585" data-testid="lang-progress" mask="url(#rect-mask)"/><rect width="13.86" height="8" x="296.13" y="0" fill="#6e4a7e" data-testid="lang-progress" mask="url(#rect-mask)"/><g><g><g><g transform="translate(0, 25) translate(0, 0) translate(0, 0)"><circle cx="5" cy="6" r="5" fill="#555"/><text x="15" y="10" class="lang-name" data-testid="lang-name">C 87.12%</text></g></g><g><g transform="translate(0, 25) translate(0, 0) translate(0, 25)"><circle cx="5" cy="6" r="5" fill="#B83998"/><text x="15" y="10" class="lang-name" data-testid="lang-name">Erlang 5.68%</text></g></g><g><g transform="translate(0, 25) translate(0, 0) translate(0, 50)"><circle cx="5" cy="6" r="5" fill="#f34b7d"/><text x="15" y="10" class="lang-name" data-testid="lang-name">C++ 3.98%</text></g></g></g><g><g><g transform="translate(0, 25) translate(150, 0) translate(0, 0)"><circle cx="5" cy="6" r="5" fill="#858585"/><text x="15" y="10" class="lang-name" data-testid="lang-name">M4 1.93%</text></g></g><g><g transform="translate(0, 25) translate(150, 0) translate(0, 25)"><circle cx="5" cy="6" r="5" fill="#6e4a7e"/><text x="15" y="10" class="lang-name" data-testid="lang-name">Elixir 1.29%</text></g></g></g></g></svg></g></svg>